<svg width="50" height="35" viewBox="0 0 50 35" fill="none" xmlns="http://www.w3.org/2000/svg">
<path d="M31.7964 0.671875C32.5308 -0.0625 33.7183 -0.0625 34.4449 0.671875L35.7886 2.01562C35.937 2.00781 36.0933 2 36.2417 2H38.7417C39.6167 2 40.4527 2.17969 41.2105 2.50781L42.4214 1.29688C43.1558 0.5625 44.3433 0.5625 45.0699 1.29688C45.7964 2.03125 45.8042 3.21875 45.0699 3.94531L44.062 4.96094C44.6558 5.91406 44.9995 7.04688 44.9995 8.25C44.9995 9.04688 45.5777 9.71875 46.3042 10.0469C48.4839 11.0234 49.9995 13.2109 49.9995 15.75C49.9995 17.7969 49.0152 19.6094 47.4995 20.75V23.25C47.4995 23.9375 46.937 24.5 46.2495 24.5H43.7495C43.062 24.5 42.4995 23.9375 42.4995 23.25V22H37.4995V23.25C37.4995 23.9375 36.937 24.5 36.2495 24.5H33.7495C33.062 24.5 32.4995 23.9375 32.4995 23.25V21.875C31.5777 21.6875 30.7261 21.2969 29.9995 20.75C29.8824 20.6641 29.773 20.5703 29.6636 20.4766C28.3355 19.3281 27.4995 17.6328 27.4995 15.75C27.4995 15.0625 26.937 14.5 26.2495 14.5C25.562 14.5 24.9995 15.0625 24.9995 15.75C24.9995 19.2422 27.0464 22.25 29.9995 23.6562V24.5C29.9995 25.8828 31.1167 27 32.4995 27H34.9995V32C34.9995 33.3828 33.8824 34.5 32.4995 34.5H27.4995C26.1167 34.5 24.9995 33.3828 24.9995 32V26.0625C23.4527 26.6641 21.7652 27 19.9995 27C18.2339 27 16.5464 26.6641 14.9995 26.0625V32C14.9995 33.3828 13.8824 34.5 12.4995 34.5H7.49954C6.11673 34.5 4.99954 33.3828 4.99954 32V22.7109L3.58548 25.8828C3.1636 26.8281 2.05423 27.2578 1.10891 26.8359C0.163602 26.4141 -0.258273 25.3125 0.163602 24.3672L1.87454 20.5078C2.2886 19.5781 2.49954 18.5781 2.49954 17.5625C2.49954 9.16406 9.15579 2.3125 17.4839 2.00781L17.4995 2H18.062H19.9995H22.4995C25.7574 2 29.0152 2.94531 31.6558 4.00781C31.7886 3.86719 31.9292 3.72656 32.0699 3.60156L31.7964 3.32812C31.062 2.59375 31.062 1.40625 31.7964 0.679687V0.671875ZM37.4995 15.125C37.4995 14.0859 36.6636 13.25 35.6245 13.25C34.5855 13.25 33.7495 14.0859 33.7495 15.125C33.7495 16.1641 34.5855 17 35.6245 17C36.6636 17 37.4995 16.1641 37.4995 15.125ZM44.3745 17C45.4136 17 46.2495 16.1641 46.2495 15.125C46.2495 14.0859 45.4136 13.25 44.3745 13.25C43.3355 13.25 42.4995 14.0859 42.4995 15.125C42.4995 16.1641 43.3355 17 44.3745 17ZM37.4995 8.25C37.4995 7.5625 36.937 7 36.2495 7C35.562 7 34.9995 7.5625 34.9995 8.25C34.9995 8.9375 35.562 9.5 36.2495 9.5C36.937 9.5 37.4995 8.9375 37.4995 8.25ZM41.2495 9.5C41.937 9.5 42.4995 8.9375 42.4995 8.25C42.4995 7.5625 41.937 7 41.2495 7C40.562 7 39.9995 7.5625 39.9995 8.25C39.9995 8.9375 40.562 9.5 41.2495 9.5Z" fill="#31243C"/>
</svg>
