<svg width="40" height="40" viewBox="0 0 40 40" fill="none" xmlns="http://www.w3.org/2000/svg">
<path d="M21.0078 0.0699177C20.5781 0.0152302 20.1484 0.179293 19.875 0.51523C19.6016 0.851168 19.5156 1.30429 19.6562 1.71836C19.875 2.35898 19.9922 3.03867 19.9922 3.75742C19.9922 7.20273 17.2031 9.99961 13.7578 10.0074H12.5C9.74219 10.0074 7.5 12.2496 7.5 15.0074C7.5 16.4996 8.15625 17.8434 9.19531 18.7574H8.125C5.01562 18.7574 2.5 21.273 2.5 24.3824C2.5 26.1949 3.35938 27.8043 4.6875 28.8355C2.02344 29.2809 0 31.5934 0 34.3824C0 37.4918 2.51562 40.0074 5.625 40.0074H34.375C37.4844 40.0074 40 37.4918 40 34.3824C40 31.5934 37.9766 29.2809 35.3125 28.8355C36.6406 27.8043 37.5 26.1949 37.5 24.3824C37.5 21.273 34.9844 18.7574 31.875 18.7574H30.8047C31.8438 17.8434 32.5 16.4996 32.5 15.0074C32.5 12.2496 30.2578 10.0074 27.5 10.0074H27.0703C27.3438 9.22617 27.5 8.38242 27.5 7.50742C27.5 3.71054 24.6719 0.569918 21.0078 0.0777302V0.0699177ZM15 24.9996C13.6172 24.9996 12.5 23.8824 12.5 22.4996C12.5 21.1168 13.6172 19.9996 15 19.9996C16.3828 19.9996 17.5 21.1168 17.5 22.4996C17.5 23.8824 16.3828 24.9996 15 24.9996ZM27.5 22.4996C27.5 23.8824 26.3828 24.9996 25 24.9996C23.6172 24.9996 22.5 23.8824 22.5 22.4996C22.5 21.1168 23.6172 19.9996 25 19.9996C26.3828 19.9996 27.5 21.1168 27.5 22.4996ZM27.5 30.9605C27.5 31.148 27.4453 31.3355 27.3281 31.484C26.6875 32.3043 24.2422 34.9996 20 34.9996C15.7578 34.9996 13.3125 32.2965 12.6719 31.484C12.5547 31.3355 12.5 31.148 12.5 30.9605C12.5 30.4293 12.9297 29.9996 13.4609 29.9996H26.5391C27.0703 29.9996 27.5 30.4293 27.5 30.9605Z" fill="#31243C"/>
</svg>
