<svg width="50" height="40" viewBox="0 0 50 40" fill="none" xmlns="http://www.w3.org/2000/svg">
<path d="M11.25 12.5C7.79688 12.5 5 9.70312 5 6.25C5 2.79688 7.79688 0 11.25 0C14.7031 0 17.5 2.79688 17.5 6.25C17.5 9.70312 14.7031 12.5 11.25 12.5ZM40 12.5C36.5469 12.5 33.75 9.70312 33.75 6.25C33.75 2.79688 36.5469 0 40 0C43.4531 0 46.25 2.79688 46.25 6.25C46.25 9.70312 43.4531 12.5 40 12.5ZM0 23.3359C0 18.7344 3.73437 15 8.33594 15H11.6719C12.9141 15 14.0938 15.2734 15.1562 15.7578C15.0547 16.3203 15.0078 16.9062 15.0078 17.5C15.0078 20.4844 16.3203 23.1641 18.3906 25C18.375 25 18.3594 25 18.3359 25H1.66406C0.75 25 0 24.25 0 23.3359ZM31.6641 25C31.6484 25 31.6328 25 31.6094 25C33.6875 23.1641 34.9922 20.4844 34.9922 17.5C34.9922 16.9062 34.9375 16.3281 34.8438 15.7578C35.9062 15.2656 37.0859 15 38.3281 15H41.6641C46.2656 15 50 18.7344 50 23.3359C50 24.2578 49.25 25 48.3359 25H31.6641ZM32.5 17.5C32.5 21.6406 29.1406 25 25 25C20.8594 25 17.5 21.6406 17.5 17.5C17.5 13.3594 20.8594 10 25 10C29.1406 10 32.5 13.3594 32.5 17.5ZM10 37.9141C10 32.1641 14.6641 27.5 20.4141 27.5H29.5859C35.3359 27.5 40 32.1641 40 37.9141C40 39.0625 39.0703 40 37.9141 40H12.0859C10.9375 40 10 39.0703 10 37.9141Z" fill="#31243C"/>
</svg>
