<svg width="45" height="30" viewBox="0 0 45 30" fill="none" xmlns="http://www.w3.org/2000/svg">
<path d="M0 5C0 2.24219 2.24219 0 5 0H25C27.7578 0 30 2.24219 30 5V25C30 27.7578 27.7578 30 25 30H5C2.24219 30 0 27.7578 0 25V5ZM43.6797 2.79688C44.4922 3.23438 45 4.07812 45 5V25C45 25.9219 44.4922 26.7656 43.6797 27.2031C42.8672 27.6406 41.8828 27.5938 41.1094 27.0781L33.6094 22.0781L32.5 21.3359V20V10V8.66406L33.6094 7.92187L41.1094 2.92188C41.875 2.41406 42.8594 2.35938 43.6797 2.79688Z" fill="#31243C"/>
</svg>
